<?xml version="1.0" encoding="UTF-8"?>
<svg width="90px" height="90px" viewBox="0 0 90 90" version="1.1" xmlns="http://www.w3.org/2000/svg" xmlns:xlink="http://www.w3.org/1999/xlink">
    <g id="Page-1" stroke="none" stroke-width="1" fill="none" fill-rule="evenodd">
        <g id="coin" fill="#56B8BE">
            <path d="M45,90 C20.2,90 0,69.8 0,45 C0,20.2 20.2,0 45,0 C69.8,0 90,20.2 90,45 C90,69.8 69.8,90 45,90 Z M45,7.5 C24.3,7.5 7.5,24.3 7.5,45 C7.5,65.7 24.3,82.5 45,82.5 C65.7,82.5 82.5,65.7 82.5,45 C82.5,24.3 65.7,7.5 45,7.5 Z" id="Shape" fill-rule="nonzero"></path>
            <path d="M41.6,68 L41.6,65 C38.8,64.9 36.1,64.4 33.9,63.6 C32,63 31,61 31.5,59.2 L31.6,58.9 C32.1,56.8 34.3,55.7 36.4,56.4 C38.5,57.1 40.8,57.6 43.3,57.6 C47,57.6 49.5,56.2 49.5,53.6 C49.5,51.2 47.4,49.6 42.7,48 C35.8,45.7 31.2,42.5 31.2,36.3 C31.2,30.7 35.2,26.2 42,24.9 L42,21.9 C42,20.2 43.4,18.8 45.1,18.8 C46.8,18.8 48.2,20.2 48.2,21.9 L48.2,24.4 C50.5,24.5 52.4,24.8 54,25.2 C56,25.7 57.2,27.7 56.7,29.7 C56.2,31.7 54.1,32.9 52.1,32.4 C50.6,31.9 48.7,31.6 46.4,31.6 C42.2,31.6 40.9,33.4 40.9,35.2 C40.9,37.3 43.1,38.7 48.6,40.7 C56.2,43.4 59.3,46.9 59.3,52.7 C59.3,58.4 55.3,63.3 47.9,64.6 L47.9,68 C47.9,69.7 46.5,71.1 44.8,71.1 C43,71.2 41.6,69.8 41.6,68 Z" id="Path"></path>
        </g>
    </g>
</svg>